<?xml version="1.0" standalone="no"?><!DOCTYPE svg PUBLIC "-//W3C//DTD SVG 1.1//EN" "http://www.w3.org/Graphics/SVG/1.1/DTD/svg11.dtd"><svg class="icon" width="16px" height="16.00px" viewBox="0 0 1024 1024" version="1.1" xmlns="http://www.w3.org/2000/svg"><path fill="#ffffff" d="M690.176 146.285714c19.870476 0 38.838857 8.338286 52.345905 22.991238l45.519238 49.420191-57.880381 42.861714-39.984762-43.398095H333.799619l-177.078857 192.26819L512 805.839238l355.279238-395.410286-45.616762-49.517714 48.469334-53.077333 49.493333 53.735619a72.240762 72.240762 0 0 1 0.585143 97.084952L564.931048 854.064762a71.046095 71.046095 0 0 1-105.862096 0L103.789714 458.654476a72.240762 72.240762 0 0 1 0.585143-97.084952l177.078857-192.292572A71.143619 71.143619 0 0 1 333.799619 146.285714h356.376381z m176.030476 73.996191a7.192381 7.192381 0 0 1 9.581714 10.630095L529.383619 610.133333a23.966476 23.966476 0 0 1-36.522667-1.340952l-182.710857-232.277333a7.192381 7.192381 0 0 1 9.435429-10.556953l189.927619 118.540191z" /></svg>