<?xml version="1.0" standalone="no"?><!DOCTYPE svg PUBLIC "-//W3C//DTD SVG 1.1//EN" "http://www.w3.org/Graphics/SVG/1.1/DTD/svg11.dtd"><svg class="icon" width="16px" height="16.00px" viewBox="0 0 1024 1024" version="1.1" xmlns="http://www.w3.org/2000/svg"><path fill="#ffffff" d="M695.149714 762.319238c-76.653714 0-138.800762-61.123048-138.800762-136.533333 0-75.410286 62.147048-136.533333 138.800762-136.533334 76.653714 0 138.800762 61.123048 138.800762 136.533334 0 75.410286-62.147048 136.533333-138.800762 136.533333m-366.299428-227.571809c-76.653714 0-138.800762-61.123048-138.800762-136.533334 0-75.385905 62.171429-136.533333 138.800762-136.533333 76.653714 0 138.800762 61.147429 138.800762 136.533333 0 75.410286-62.147048 136.533333-138.800762 136.533334m366.299428-136.533334c-18.70019 0-36.839619 2.243048-54.272 6.363429L750.275048 170.666667h-129.560381l-72.557715 155.184762C517.412571 235.666286 430.884571 170.666667 328.850286 170.666667 201.094095 170.666667 97.52381 272.554667 97.52381 398.214095c0 125.68381 103.570286 227.57181 231.326476 227.57181 30.72 0 60.001524-5.948952 86.820571-16.652191L301.494857 853.333333h129.536l58.075429-124.17219A231.69219 231.69219 0 0 0 695.149714 853.333333C822.905905 853.333333 926.47619 751.445333 926.47619 625.785905c0-125.68381-103.570286-227.57181-231.326476-227.57181" /></svg>