<?xml version="1.0" standalone="no"?><!DOCTYPE svg PUBLIC "-//W3C//DTD SVG 1.1//EN" "http://www.w3.org/Graphics/SVG/1.1/DTD/svg11.dtd"><svg class="icon" width="16px" height="16.00px" viewBox="0 0 1024 1024" version="1.1" xmlns="http://www.w3.org/2000/svg"><path fill="#ffffff" d="M512 109.714286c222.183619 0 402.285714 180.102095 402.285714 402.285714S734.183619 914.285714 512 914.285714 109.714286 734.183619 109.714286 512 289.816381 109.714286 512 109.714286z m35.498667 72.874666v140.092953h-70.997334V182.613333C310.223238 200.289524 180.711619 341.016381 180.711619 512c0 170.983619 129.511619 311.710476 295.789714 329.411048v-140.092953h70.997334v140.092953c166.278095-17.700571 295.789714-158.427429 295.789714-329.411048 0-170.983619-129.511619-311.710476-295.789714-329.411048z m102.546285 353.084953l27.599238 94.646857H346.35581l27.599238-94.646857h276.089904z m27.599238-141.994667l-27.599238 94.646857H373.955048l-27.599238-94.646857h331.28838z" /></svg>