<?xml version="1.0" standalone="no"?><!DOCTYPE svg PUBLIC "-//W3C//DTD SVG 1.1//EN" "http://www.w3.org/Graphics/SVG/1.1/DTD/svg11.dtd"><svg class="icon" width="16px" height="16.00px" viewBox="0 0 1024 1024" version="1.1" xmlns="http://www.w3.org/2000/svg"><path fill="#ffffff" d="M721.67619 585.142857a136.533333 136.533333 0 0 1 117.638096 205.897143l81.310476 81.310476-48.274286 48.274286-81.310476-81.310476A136.533333 136.533333 0 1 1 721.67619 585.142857z m-416.914285 195.047619a60.952381 60.952381 0 1 1 0 121.904762 60.952381 60.952381 0 0 1 0-121.904762z m416.914285-121.904762a63.390476 63.390476 0 1 0 0 126.780953 63.390476 63.390476 0 0 0 0-126.780953zM97.718857 85.333333a109.714286 109.714286 0 0 1 107.349333 87.064381L220.16 243.809524 836.681143 243.809524a73.142857 73.142857 0 0 1 71.631238 87.942095L854.479238 592.457143A185.295238 185.295238 0 0 0 536.624762 731.428571h-230.083048a73.142857 73.142857 0 0 1-71.631238-58.343619l-69.241905-335.335619-0.463238 0.097524-31.695238-150.357333A36.571429 36.571429 0 0 0 97.718857 158.47619H35.157333v-73.142857h62.561524zM707.047619 438.857143H365.714286v73.142857h341.333333v-73.142857z" /></svg>