<?xml version="1.0" standalone="no"?><!DOCTYPE svg PUBLIC "-//W3C//DTD SVG 1.1//EN" "http://www.w3.org/Graphics/SVG/1.1/DTD/svg11.dtd"><svg class="icon" width="16px" height="16.00px" viewBox="0 0 1024 1024" version="1.1" xmlns="http://www.w3.org/2000/svg"><path fill="#ffffff" d="M899.437714 697.295238l51.321905 52.102095-198.948571 195.974096-120.588191-118.979048 51.370667-52.077714 69.266286 68.339809 147.577904-145.359238zM408.551619 97.52381a73.142857 73.142857 0 0 1 51.736381 21.430857L539.306667 197.973333A73.142857 73.142857 0 0 0 591.067429 219.428571H804.571429a73.142857 73.142857 0 0 1 73.142857 73.142858v341.333333h-73.142857V292.571429h-213.504a146.285714 146.285714 0 0 1-98.499048-38.13181L487.619048 249.734095 408.551619 170.666667H219.428571v682.666666h365.714286v73.142857H219.428571a73.142857 73.142857 0 0 1-73.142857-73.142857V170.666667a73.142857 73.142857 0 0 1 73.142857-73.142857h189.123048zM365.714286 633.904762v73.142857h-73.142857v-73.142857h73.142857z m219.428571 0v73.142857h-170.666667v-73.142857h170.666667z m-219.428571-195.047619v73.142857h-73.142857v-73.142857h73.142857z m365.714285 0v73.142857H414.47619v-73.142857h316.952381z" /></svg>