<?xml version="1.0" standalone="no"?><!DOCTYPE svg PUBLIC "-//W3C//DTD SVG 1.1//EN" "http://www.w3.org/Graphics/SVG/1.1/DTD/svg11.dtd"><svg class="icon" width="16px" height="16.00px" viewBox="0 0 1024 1024" version="1.1" xmlns="http://www.w3.org/2000/svg"><path fill="#ffffff" d="M408.551619 97.52381a73.142857 73.142857 0 0 1 51.736381 21.430857L539.306667 197.973333A73.142857 73.142857 0 0 0 591.067429 219.428571H804.571429a73.142857 73.142857 0 0 1 73.142857 73.142858v560.761904a73.142857 73.142857 0 0 1-73.142857 73.142857H219.428571a73.142857 73.142857 0 0 1-73.142857-73.142857V170.666667a73.142857 73.142857 0 0 1 73.142857-73.142857h189.123048zM341.333333 633.904762h-73.142857v73.142857h73.142857v-73.142857z m414.476191 0H390.095238v73.142857h365.714286v-73.142857z m-414.476191-195.047619h-73.142857v73.142857h73.142857v-73.142857z m414.476191 0H390.095238v73.142857h365.714286v-73.142857z" /></svg>