<?xml version="1.0" standalone="no"?><!DOCTYPE svg PUBLIC "-//W3C//DTD SVG 1.1//EN" "http://www.w3.org/Graphics/SVG/1.1/DTD/svg11.dtd"><svg class="icon" width="16px" height="16.00px" viewBox="0 0 1024 1024" version="1.1" xmlns="http://www.w3.org/2000/svg"><path fill="#ffffff" d="M172.251429 239.177143a85.187048 85.187048 0 0 1 64.121904-12.068572l399.993905 83.968 29.037714-18.895238a292.08381 292.08381 0 0 1 229.351619-38.936381l8.387048 2.194286 38.107429 10.581333c18.16381 5.046857 33.645714 17.066667 43.081142 33.401905a71.826286 71.826286 0 0 1-22.576761 95.914667l-3.608381 2.218667L311.954286 770.438095a73.094095 73.094095 0 0 1-71.850667 0.658286l-4.144762-2.462476-133.290667-85.333334a58.758095 58.758095 0 0 1-6.753523-93.866666l3.120762-2.486857 45.714285-34.157715a72.97219 72.97219 0 0 1 44.202667-14.531047l5.315048 0.243809 83.236571 6.631619 72.655238-47.37219-210.383238-98.913524a76.068571 76.068571 0 0 1-38.4-96.719238l1.828571-4.242286c5.948952-12.775619 15.36-23.600762 27.111619-31.305143z m40.106666 61.391238l-41.935238 27.40419a2.608762 2.608762 0 0 0 0.316953 4.559239l251.465142 118.247619 127.366096-83.065905-328.045715-68.876191a12.190476 12.190476 0 0 0-7.484952 0.804572l-1.706667 0.926476z m203.044572 571.245714L944.152381 564.662857l-36.644571-63.439238-528.774096 307.126857 36.668953 63.463619z" /></svg>