<?xml version="1.0" standalone="no"?><!DOCTYPE svg PUBLIC "-//W3C//DTD SVG 1.1//EN" "http://www.w3.org/Graphics/SVG/1.1/DTD/svg11.dtd"><svg class="icon" width="16px" height="16.00px" viewBox="0 0 1024 1024" version="1.1" xmlns="http://www.w3.org/2000/svg"><path fill="#ffffff" d="M764.68419 438.857143C867.474286 438.857143 950.857143 517.266286 950.857143 613.985524l-0.121905 6.168381c-2.31619 57.880381-36.327619 122.977524-92.16 188.952381a771.120762 771.120762 0 0 1-65.609143 68.266666l-11.288381 10.215619-10.24 8.874667c-3.023238 2.56-5.315048 4.461714-6.753524 5.632l-6.777904-5.607619-10.24-8.899048a771.120762 771.120762 0 0 1-76.897524-78.457904c-55.832381-65.999238-89.84381-131.096381-92.16-188.952381l-0.121905-6.192762c0-96.719238 83.382857-175.128381 186.197333-175.128381z m81.798096-316.952381C890.63619 121.904762 926.47619 157.086476 926.47619 200.46019V451.779048C884.297143 413.45219 827.221333 390.095238 764.708571 390.095238c-129.121524 0-234.959238 99.547429-234.959238 223.890286l0.146286 7.143619c2.608762 66.145524 35.742476 135.996952 94.012952 207.823238H153.112381C108.982857 828.952381 73.142857 793.770667 73.142857 750.396952V200.46019C73.142857 157.062095 108.982857 121.904762 153.136762 121.904762H846.506667zM764.586667 512.073143c-59.196952 0-106.666667 43.568762-109.568 97.28l-0.146286 5.217524 0.073143 3.364571c1.487238 38.13181 27.087238 90.502095 76.458666 149.723429 6.948571 8.362667 14.214095 16.65219 21.723429 24.819809l11.459048 12.166095 11.459047-12.166095c7.509333-8.167619 14.774857-16.457143 21.723429-24.819809 47.225905-56.661333 72.704-107.032381 76.141714-144.676572l0.316953-5.046857 0.073142-3.364571c0-56.07619-48.591238-102.497524-109.714285-102.497524z m-1.292191 53.369905a60.952381 60.952381 0 1 1 0 121.904762 60.952381 60.952381 0 0 1 0-121.904762zM438.857143 463.238095H195.047619v73.142857h243.809524v-73.142857z m208.335238-170.666666H195.047619v73.142857h452.144762v-73.142857z" /></svg>