<?xml version="1.0" standalone="no"?><!DOCTYPE svg PUBLIC "-//W3C//DTD SVG 1.1//EN" "http://www.w3.org/Graphics/SVG/1.1/DTD/svg11.dtd"><svg class="icon" width="16px" height="16.00px" viewBox="0 0 1024 1024" version="1.1" xmlns="http://www.w3.org/2000/svg"><path fill="#ffffff" d="M514.925714 121.904762l434.590476 434.590476c15.36 15.36 4.486095 41.618286-17.237333 41.618286h-126.317714v228.644571a73.142857 73.142857 0 0 1-73.142857 73.142857H297.033143a73.142857 73.142857 0 0 1-73.142857-73.142857v-228.644571H97.572571c-21.723429 0-32.597333-26.258286-17.237333-41.618286L514.925714 121.904762z m0 103.424L215.28381 524.970667h81.749333V826.758095L341.333333 826.733714V463.238095h341.333334v363.495619l50.151619 0.024381V524.970667h81.749333L514.925714 225.328762zM609.52381 780.190476h-195.04762v46.543238h195.04762V780.190476z m0-121.904762h-195.04762v48.761905h195.04762v-48.761905z m0-121.904762h-195.04762v48.761905h195.04762v-48.761905z" /></svg>