<?xml version="1.0" standalone="no"?><!DOCTYPE svg PUBLIC "-//W3C//DTD SVG 1.1//EN" "http://www.w3.org/Graphics/SVG/1.1/DTD/svg11.dtd"><svg t="1686811439372" class="icon" viewBox="0 0 1024 1024" version="1.1" xmlns="http://www.w3.org/2000/svg" p-id="2349" xmlns:xlink="http://www.w3.org/1999/xlink" width="16" height="16"><path d="M981.3 821.3h-96V170.7c0-17.7-14.3-32-32-32H202.7v-96c0-17.7-14.3-32-32-32s-32 14.3-32 32v96h-96c-17.7 0-32 14.3-32 32s14.3 32 32 32h96v650.7c0 17.7 14.3 32 32 32h650.7v96c0 17.7 14.3 32 32 32s32-14.3 32-32v-96h96c17.7 0 32-14.3 32-32-0.1-17.7-14.4-32.1-32.1-32.1z m-778.6 0V202.7h618.7v618.7H202.7z" p-id="2350"></path></svg>