<?xml version="1.0" standalone="no"?><!DOCTYPE svg PUBLIC "-//W3C//DTD SVG 1.1//EN" "http://www.w3.org/Graphics/SVG/1.1/DTD/svg11.dtd"><svg class="icon" width="16px" height="16.00px" viewBox="0 0 1024 1024" version="1.1" xmlns="http://www.w3.org/2000/svg"><path fill="#000000" d="M975.44 620.05c-60.727 230.121-300.437 396.32-540.147 351.574C214.76 936.467 48.56 738.306 45.365 514.577c-6.393-217.337 147.022-412.3 361.163-460.243 239.71-51.138 463.439 79.904 543.342 306.829 12.785 25.569 47.942 9.588 41.55-15.98C901.928 102.275 659.022-44.747 403.332 12.784 166.818 63.923-2.578 281.26 3.815 524.165s194.964 463.44 437.87 495.401c262.083 35.158 508.185-143.826 572.108-389.928 9.588-25.57-31.962-31.961-38.354-9.588zM598.295 226.925c-3.197 0-12.785 3.196-12.785 9.589-12.784 47.942-35.157 92.688-67.119 131.041v-25.569c0-3.196-3.196-9.588-12.784-9.588H313.84c3.196-3.196 3.196-9.589 6.392-12.785v-3.196c0 3.196 3.196 6.392 12.785 6.392H345.8c3.196 0 9.589-3.196 9.589-12.784V281.26h73.51v31.96c0 3.197 3.197 9.59 12.785 9.59h12.785c3.196 0 9.588-3.197 9.588-12.785V281.26h76.707c3.196 0 9.589-3.197 9.589-12.785v-12.784c0-3.197-3.197-9.589-12.785-9.589h-73.511v-28.765c0-3.196-3.196-9.588-12.785-9.588H438.49c-3.196 0-9.588 3.196-9.588 12.784v25.57H355.39v-25.57c0-3.196-3.197-9.588-12.785-9.588H329.82c-9.588 9.588-12.784 12.784-12.784 19.176v25.57h-76.707c-3.196-3.197-12.785 0-12.785 6.392v12.784c0 3.196 3.196 9.589 12.785 9.589h76.707v22.373c-3.196-6.393-3.196-6.393-9.588-9.589-3.197 0-6.393-3.196-6.393-3.196h-9.588c-3.196 0-12.785 3.196-12.785 9.589-12.784 41.55-31.961 73.51-63.922 102.276-3.196 3.196-9.589 9.588-3.196 12.784 12.784 9.589 12.784 12.785 15.98 15.98 3.196 3.197 9.589 9.59 12.785 3.197 15.98-12.784 28.765-25.569 41.55-41.55 3.196-9.588 12.784-28.765 15.98-31.961 12.785-9.588 47.942 0 63.923 0h121.453c0 22.373 3.196 63.923-9.589 76.707-9.588 15.98-22.373 22.373-38.353 22.373 0-3.196 3.196-3.196 3.196-6.392V380.34c0-3.196-3.196-9.589-12.785-9.589H301.055c-6.392 3.196-9.588 9.589-9.588 15.981v73.511c0 3.196 3.196 9.588 12.784 9.588h105.473v9.589c0 3.196 3.196 9.588 3.196 12.784 0 3.196 9.588 9.589 12.784 9.589 22.373 0 47.942 0 63.923-12.785 3.196 6.392 9.588 15.98 12.785 25.57H240.329c-12.785 0-15.98 9.588-12.785 15.98v9.588c0 3.196 3.196 9.589 12.785 9.589H783.67c3.196 0 9.589-3.196 9.589-12.785v-12.784c0-3.196-3.197-9.589-12.785-9.589H547.157c-3.196 0-19.176 3.196-19.176 0v-9.588c22.373-6.392 47.942-15.98 70.315-28.765 12.784-9.589 31.96-25.57 44.745-25.57 9.589 0 28.766 19.177 41.55 25.57 25.57 12.784 51.138 25.569 79.903 31.961 3.197 0 12.785 0 12.785-3.196 3.196-3.196 3.196-9.589 9.588-12.785 3.196-3.196 0-12.784-3.196-12.784-25.569-6.392-47.942-15.98-67.119-25.57-15.98-6.392-31.96-15.98-44.745-25.568 22.373-25.57 41.55-51.138 51.138-83.1 3.196-9.588 3.196-28.765 9.588-31.961 3.196-3.196 25.57 0 31.961 0 3.197 0 9.589-3.196 9.589-12.785v-12.784c0-3.196 0-3.196-3.196-6.392H607.884c3.196-12.785 6.392-25.57 9.588-35.158v-6.392M329.82 409.105h79.904v31.961H329.82v-31.961z m188.572-6.392c3.196 0 3.196 0 0 0h3.196c3.197 0 3.197 0 6.393-3.197 0 0 0-3.196 3.196-3.196s3.196-3.196 3.196-3.196c12.784-12.784 22.373-25.569 31.961-38.353 12.785 25.569 28.765 47.942 47.942 67.118-28.765 19.177-60.726 35.158-99.08 44.746v-3.196c0-3.196-3.196-3.196-9.588-3.196 9.588-12.785 12.784-35.157 12.784-57.53z m185.376-99.08c-12.785 35.157-28.765 67.118-54.334 92.687-19.177-19.176-38.354-38.353-47.942-63.922-3.196-9.589-3.196-12.785-3.196-19.177 0-3.196 3.196-6.392 3.196-9.588h102.276z m15.98 508.185h12.785c3.196 0 9.589-3.197 9.589-12.785V690.364c0-3.196-3.197-3.196-6.393-3.196 0-3.196-3.196-3.196-6.392-3.196H310.644c-3.196 0-9.589 3.196-9.589 12.785v108.668c0 3.196 3.196 9.589 12.785 9.589h12.784c3.196 0 9.589-3.196 9.589-12.785v-12.784H710.16v15.98c-3.196 3.196 0 6.393 9.589 6.393zM329.82 719.13h373.948v41.55H329.82v-41.55z m380.34-118.257c3.196 0 9.589-3.196 9.589-12.785v-12.784c0-3.196-3.197-9.589-12.785-9.589H313.84c-3.196 0-3.196 3.196-3.196 6.393-3.196 0-3.196 3.196-3.196 6.392v12.784a330237278478818400 330237278478818400 0 0 0 402.713 9.588z m-405.909 47.942c0 3.196 3.197 9.588 12.785 9.588H710.16c3.196 0 9.589-3.196 9.589-12.784v-12.785c0-3.196-3.197-9.588-12.785-9.588H313.84c-3.196 0-3.196 3.196-3.196 6.392-3.196 0-3.196 3.196-3.196 6.392-3.197 6.393-3.197 9.589-3.197 12.785z"  /></svg>